<svg width="512" height="512" viewBox="0 0 512 512" xmlns="http://www.w3.org/2000/svg">
  <defs>
    <linearGradient id="bgGrad" x1="0%" y1="0%" x2="100%" y2="100%">
      <stop offset="0%" stop-color="#0A0E14"/>
      <stop offset="100%" stop-color="#12181F"/>
    </linearGradient>
    <linearGradient id="accentGrad" x1="0%" y1="0%" x2="100%" y2="100%">
      <stop offset="0%" stop-color="#3B82F6"/>
      <stop offset="100%" stop-color="#60A5FA"/>
    </linearGradient>
    <filter id="glow" x="-50%" y="-50%" width="200%" height="200%">
      <feGaussianBlur stdDeviation="10" result="blur"/>
      <feMerge>
        <feMergeNode in="blur"/>
        <feMergeNode in="SourceGraphic"/>
      </feMerge>
    </filter>
  </defs>
  <rect x="16" y="16" width="480" height="480" rx="96" fill="url(#bgGrad)" stroke="#1E293B" stroke-width="4"/>
  <rect x="48" y="48" width="416" height="416" rx="72" fill="none" stroke="#1E2A38" stroke-width="2"/>
  <path d="M 90 130 L 90 100 L 120 100" fill="none" stroke="#3B82F6" stroke-width="8" stroke-linecap="round" filter="url(#glow)"/>
  <path d="M 422 130 L 422 100 L 392 100" fill="none" stroke="#3B82F6" stroke-width="8" stroke-linecap="round" filter="url(#glow)"/>
  <path d="M 90 382 L 90 412 L 120 412" fill="none" stroke="#3B82F6" stroke-width="8" stroke-linecap="round" filter="url(#glow)"/>
  <path d="M 422 382 L 422 412 L 392 412" fill="none" stroke="#3B82F6" stroke-width="8" stroke-linecap="round" filter="url(#glow)"/>
  <rect x="146" y="176" width="18" height="160" rx="4" fill="url(#accentGrad)" filter="url(#glow)"/>
  <text x="256" y="290" font-family="'JetBrains Mono', 'Courier New', monospace" font-weight="700" font-size="108" fill="#F1F5F9" text-anchor="middle" letter-spacing="2">TST</text>
  <rect x="176" y="316" width="160" height="6" rx="3" fill="url(#accentGrad)" filter="url(#glow)"/>
</svg>
